<?xml version="1.0" encoding="UTF-8"?>
<svg width="300px" height="300px" viewBox="0 0 300 300" version="1.1" xmlns="http://www.w3.org/2000/svg" xmlns:xlink="http://www.w3.org/1999/xlink">
    <!-- Generator: Sketch 58 (84663) - https://sketch.com -->
    <title>elephant</title>
    <desc>Created with Sketch.</desc>
    <g id="Page-1" stroke="none" stroke-width="1" fill="none" fill-rule="evenodd">
        <g id="elephant" fill="#000000" fill-rule="nonzero">
            <path d="M215.980048,0.555608592 C224.32304,3.70023866 227.918052,8.69642005 239.759857,5.03627685 C240.034204,14.7694511 229.009026,13.1498807 227.869596,21.4632458 C238.839905,32.773747 257.407126,31.9167064 266.512589,45.3579952 C273.773872,56.0749403 275.264608,81.302148 263.539667,91.652506 C273.535867,97.1792363 281.509026,87.8312649 290.292399,87.1718377 C284.296675,97.574463 266.294537,95.9133652 256.107363,102.105967 C273.368409,107.487351 287.77981,97.1033413 299.211164,91.652506 C300.736105,98.6033413 284.776247,109.072554 270.970546,111.066587 C254.796912,113.402148 233.953682,107.85179 223.410214,115.546539 C223.014014,127.891647 236.892399,125.894033 236.786223,137.947733 C222.398337,134.689976 208.218527,130.978282 196.657482,139.439857 C188.516865,173.814558 196.61829,201.894272 205.574822,227.549642 C210.001425,240.226253 212.379335,254.27327 215.980048,263.389976 C218.063658,268.666826 226.384561,275.688544 224.897387,281.311217 C221.513302,294.108115 193.565558,289.467064 183.281473,282.803341 C187.443705,264.815513 178.447981,247.119809 171.391211,232.029594 C165.337055,249.580668 152.986461,274.656802 168.41829,288.778282 C164.801188,301.646062 135.571496,302.1179 125.316627,294.752506 C121.996675,265.371838 135.72399,240.612172 135.72114,209.628401 C122.318052,212.092124 112.395962,218.051313 98.5638955,220.082578 C104.443468,240.060859 110.333729,260.027685 119.372209,276.831981 C115.008314,285.88926 92.8945368,286.168496 83.7014252,281.311933 C78.1745843,265.459905 76.4180523,245.818854 67.3524941,233.524582 C55.0425178,242.062768 40.5391924,248.39642 33.1674584,261.897852 C34.4337292,271.577327 42.9021378,274.021002 43.5719715,284.299045 C32.6059382,289.148449 10.7372922,291.380191 0.4695962,284.299045 C-1.12019002,245.366348 19.7700713,229.022434 33.1674584,205.149165 C32.2389549,192.220525 23.3957245,182.411456 27.2223278,169.308115 C12.3513064,174.456086 23.7684086,197.484487 30.1952494,203.656325 C-0.577909739,194.40358 15.4517815,160.848687 31.6817102,140.934129 C47.7064133,121.270883 68.5332542,105.308592 103.023278,105.093079 C107.352257,102.998807 100.388124,99.9479714 101.536817,96.1324582 C116.506176,80.0212411 135.944181,83.2689737 153.557245,75.224821 C164.878147,70.0546539 165.004988,59.2417661 181.795724,58.797136 C189.105463,58.6045346 200.119952,60.2606205 210.034917,61.7842482 C225.048456,64.0926014 248.271734,80.3670644 251.650119,61.7842482 C255.257957,41.9513126 224.735629,47.1386635 215.980048,33.4102625 C209.335154,22.9911695 214.194299,17.3484487 215.980048,0.555608592 Z" id="path-0"></path>
        </g>
    </g>
</svg>